<svg xmlns="http://www.w3.org/2000/svg" viewBox="0 0 128 128" role="img" aria-labelledby="title desc">
  <title id="title">Everest Supplies Australia maritime trade logo</title>
  <desc id="desc">A blue circular logo with a cargo vessel, flag, and ocean waves.</desc>
  <defs>
    <linearGradient id="deepBlue" x1="28" y1="18" x2="101" y2="112" gradientUnits="userSpaceOnUse">
      <stop offset="0" stop-color="#0a3a68"/>
      <stop offset="0.55" stop-color="#063062"/>
      <stop offset="1" stop-color="#0b4772"/>
    </linearGradient>
    <linearGradient id="waveBlue" x1="18" y1="91" x2="109" y2="110" gradientUnits="userSpaceOnUse">
      <stop offset="0" stop-color="#1aa9e2"/>
      <stop offset="1" stop-color="#0b6ea8"/>
    </linearGradient>
  </defs>
  <circle cx="64" cy="64" r="58" fill="#fff"/>
  <path d="M16 75a49 49 0 1 1 95 15" fill="none" stroke="#0a3a68" stroke-width="7" stroke-linecap="round"/>
  <path d="M67 24v35" fill="none" stroke="#063062" stroke-width="5" stroke-linecap="round"/>
  <path d="M69 30c9-5 17-2 24 2-7 5-15 7-24 2Z" fill="#0a3a68"/>
  <path d="M38 66 43 45h42l6 21-27-10Z" fill="url(#deepBlue)"/>
  <path d="M49 50h13v10H47Zm20 0h14l2 10H69Z" fill="#fff"/>
  <path d="M29 76 64 55l36 21-16 26H45Z" fill="url(#deepBlue)"/>
  <path d="M64 55v47" fill="none" stroke="#fff" stroke-width="4" stroke-linecap="round"/>
  <path d="M18 95c13-11 27-11 43 0 14 10 29 10 49-2" fill="none" stroke="#fff" stroke-width="14" stroke-linecap="round"/>
  <path d="M18 101c13-10 27-10 43 0 14 10 29 10 49-2" fill="none" stroke="url(#waveBlue)" stroke-width="10" stroke-linecap="round"/>
  <path d="M22 112h86a55 55 0 0 1-86 0Z" fill="#1399d2"/>
</svg>
